<svg width="267" height="19" viewBox="0 0 267 19" fill="none" xmlns="http://www.w3.org/2000/svg">
<path d="M0.656 0.863999V18H12.776V14.832H4.424V0.863999H0.656ZM14.8826 0.863999V18H27.8906V14.832H18.6506V10.632H26.9546V7.704H18.6506V4.032H27.6986V0.863999H14.8826ZM34.2371 4.032V18H38.0051V4.032H43.1411V0.863999H29.1011V4.032H34.2371ZM45.0929 0.863999V4.56H46.6769C46.6769 5.152 46.5649 5.656 46.3409 6.072C46.1169 6.472 45.7009 6.776 45.0929 6.984V8.568C45.5889 8.504 46.0449 8.36 46.4609 8.136C46.8929 7.896 47.2609 7.6 47.5649 7.248C47.8689 6.896 48.1009 6.488 48.2609 6.024C48.4369 5.56 48.5169 5.064 48.5009 4.536V0.863999H45.0929ZM54.3646 12.312H50.7166C50.7006 13.368 50.8926 14.28 51.2926 15.048C51.6926 15.816 52.2286 16.448 52.9006 16.944C53.5886 17.44 54.3726 17.8 55.2526 18.024C56.1486 18.264 57.0686 18.384 58.0126 18.384C59.1806 18.384 60.2046 18.248 61.0846 17.976C61.9806 17.704 62.7246 17.328 63.3166 16.848C63.9246 16.352 64.3806 15.768 64.6846 15.096C64.9886 14.424 65.1406 13.696 65.1406 12.912C65.1406 11.952 64.9326 11.168 64.5166 10.56C64.1166 9.936 63.6366 9.44 63.0766 9.072C62.5166 8.704 61.9486 8.44 61.3726 8.28C60.8126 8.104 60.3726 7.984 60.0526 7.92C58.9806 7.648 58.1086 7.424 57.4366 7.248C56.7806 7.072 56.2606 6.896 55.8766 6.72C55.5086 6.544 55.2606 6.352 55.1326 6.144C55.0046 5.936 54.9406 5.664 54.9406 5.328C54.9406 4.96 55.0206 4.656 55.1806 4.416C55.3406 4.176 55.5406 3.976 55.7806 3.816C56.0366 3.656 56.3166 3.544 56.6206 3.48C56.9246 3.416 57.2286 3.384 57.5326 3.384C57.9966 3.384 58.4206 3.424 58.8046 3.504C59.2046 3.584 59.5566 3.72 59.8606 3.912C60.1646 4.104 60.4046 4.368 60.5806 4.704C60.7726 5.04 60.8846 5.464 60.9166 5.976H64.5646C64.5646 4.984 64.3726 4.144 63.9886 3.456C63.6206 2.752 63.1166 2.176 62.4766 1.728C61.8366 1.28 61.1006 0.959999 60.2686 0.767999C59.4526 0.559999 58.5966 0.456 57.7006 0.456C56.9326 0.456 56.1646 0.559999 55.3966 0.767999C54.6286 0.975999 53.9406 1.296 53.3326 1.728C52.7246 2.16 52.2286 2.704 51.8446 3.36C51.4766 4 51.2926 4.76 51.2926 5.64C51.2926 6.424 51.4366 7.096 51.7246 7.656C52.0286 8.2 52.4206 8.656 52.9006 9.024C53.3806 9.392 53.9246 9.696 54.5326 9.936C55.1406 10.16 55.7646 10.352 56.4046 10.512C57.0286 10.688 57.6446 10.848 58.2526 10.992C58.8606 11.136 59.4046 11.304 59.8846 11.496C60.3646 11.688 60.7486 11.928 61.0366 12.216C61.3406 12.504 61.4926 12.88 61.4926 13.344C61.4926 13.776 61.3806 14.136 61.1566 14.424C60.9326 14.696 60.6526 14.912 60.3166 15.072C59.9806 15.232 59.6206 15.344 59.2366 15.408C58.8526 15.456 58.4926 15.48 58.1566 15.48C57.6606 15.48 57.1806 15.424 56.7166 15.312C56.2526 15.184 55.8446 15 55.4926 14.76C55.1566 14.504 54.8846 14.176 54.6766 13.776C54.4686 13.376 54.3646 12.888 54.3646 12.312ZM86.4463 16.056L86.8303 18H89.2303V8.736H82.0303V11.544H85.8223C85.7103 12.744 85.3103 13.664 84.6223 14.304C83.9503 14.928 82.9903 15.24 81.7423 15.24C80.8943 15.24 80.1743 15.08 79.5823 14.76C78.9903 14.424 78.5103 13.984 78.1423 13.44C77.7743 12.896 77.5023 12.288 77.3263 11.616C77.1663 10.928 77.0863 10.224 77.0863 9.504C77.0863 8.752 77.1663 8.024 77.3263 7.32C77.5023 6.616 77.7743 5.992 78.1423 5.448C78.5103 4.888 78.9903 4.448 79.5823 4.128C80.1743 3.792 80.8943 3.624 81.7423 3.624C82.6543 3.624 83.4303 3.864 84.0703 4.344C84.7103 4.824 85.1423 5.544 85.3663 6.504H88.9663C88.8703 5.528 88.6063 4.664 88.1743 3.912C87.7423 3.16 87.1903 2.528 86.5182 2.016C85.8623 1.504 85.1183 1.12 84.2863 0.863999C83.4703 0.592 82.6223 0.456 81.7423 0.456C80.4303 0.456 79.2463 0.688 78.1903 1.152C77.1503 1.616 76.2703 2.256 75.5503 3.072C74.8303 3.888 74.2783 4.848 73.8943 5.952C73.5103 7.04 73.3183 8.224 73.3183 9.504C73.3183 10.752 73.5103 11.92 73.8943 13.008C74.2783 14.08 74.8303 15.016 75.5503 15.816C76.2703 16.616 77.1503 17.248 78.1903 17.712C79.2463 18.16 80.4303 18.384 81.7423 18.384C82.5743 18.384 83.3983 18.216 84.2143 17.88C85.0303 17.528 85.7743 16.92 86.4463 16.056ZM92.2732 0.863999V18H105.281V14.832H96.0412V10.632H104.345V7.704H96.0412V4.032H105.089V0.863999H92.2732ZM111.628 4.032V18H115.396V4.032H120.532V0.863999H106.492V4.032H111.628ZM133.291 2.784V18H135.571V2.784H141.283V0.863999H127.579V2.784H133.291ZM143.185 0.863999V18H145.465V10.152H154.489V18H156.769V0.863999H154.489V8.232H145.465V0.863999H143.185ZM160.601 0.863999V18H162.881V0.863999H160.601ZM176.628 5.88H178.788C178.756 4.936 178.572 4.128 178.236 3.456C177.916 2.768 177.468 2.2 176.892 1.752C176.332 1.304 175.676 0.975999 174.924 0.767999C174.172 0.559999 173.356 0.456 172.476 0.456C171.692 0.456 170.924 0.559999 170.172 0.767999C169.436 0.959999 168.772 1.264 168.18 1.68C167.604 2.08 167.14 2.6 166.788 3.24C166.436 3.864 166.26 4.608 166.26 5.472C166.26 6.256 166.412 6.912 166.716 7.44C167.036 7.952 167.452 8.376 167.964 8.712C168.492 9.032 169.084 9.296 169.74 9.504C170.396 9.696 171.06 9.872 171.732 10.032C172.42 10.176 173.092 10.32 173.748 10.464C174.404 10.608 174.988 10.8 175.5 11.04C176.028 11.264 176.444 11.56 176.748 11.928C177.068 12.296 177.228 12.776 177.228 13.368C177.228 13.992 177.1 14.504 176.844 14.904C176.588 15.304 176.252 15.624 175.836 15.864C175.42 16.088 174.948 16.248 174.42 16.344C173.908 16.44 173.396 16.488 172.884 16.488C172.244 16.488 171.62 16.408 171.012 16.248C170.404 16.088 169.868 15.84 169.404 15.504C168.956 15.168 168.588 14.744 168.3 14.232C168.028 13.704 167.892 13.08 167.892 12.36H165.732C165.732 13.4 165.916 14.304 166.284 15.072C166.668 15.824 167.18 16.448 167.82 16.944C168.476 17.424 169.228 17.784 170.076 18.024C170.94 18.264 171.852 18.384 172.812 18.384C173.596 18.384 174.38 18.288 175.164 18.096C175.964 17.92 176.684 17.632 177.324 17.232C177.964 16.816 178.484 16.288 178.884 15.648C179.3 14.992 179.508 14.208 179.508 13.296C179.508 12.448 179.348 11.744 179.028 11.184C178.724 10.624 178.308 10.16 177.78 9.792C177.268 9.424 176.684 9.136 176.028 8.928C175.372 8.704 174.7 8.512 174.012 8.352C173.34 8.192 172.676 8.048 172.02 7.92C171.364 7.776 170.772 7.6 170.244 7.392C169.732 7.184 169.316 6.92 168.996 6.6C168.692 6.264 168.54 5.832 168.54 5.304C168.54 4.744 168.644 4.28 168.852 3.912C169.076 3.528 169.364 3.224 169.716 3C170.084 2.776 170.5 2.616 170.964 2.52C171.428 2.424 171.9 2.376 172.38 2.376C173.564 2.376 174.532 2.656 175.284 3.216C176.052 3.76 176.5 4.648 176.628 5.88ZM191.238 8.232V2.784H195.798C196.294 2.784 196.758 2.816 197.19 2.88C197.638 2.928 198.03 3.048 198.366 3.24C198.702 3.432 198.966 3.704 199.158 4.056C199.35 4.408 199.446 4.888 199.446 5.496C199.446 6.408 199.158 7.096 198.582 7.56C198.022 8.008 197.094 8.232 195.798 8.232H191.238ZM188.958 0.863999V18H197.238C198.086 18 198.83 17.864 199.47 17.592C200.126 17.304 200.67 16.936 201.102 16.488C201.55 16.024 201.886 15.496 202.11 14.904C202.334 14.312 202.446 13.704 202.446 13.08C202.446 12.024 202.166 11.128 201.606 10.392C201.046 9.656 200.238 9.176 199.182 8.952V8.904C199.998 8.584 200.622 8.096 201.054 7.44C201.502 6.768 201.726 5.976 201.726 5.064C201.726 4.2 201.526 3.472 201.126 2.88C200.742 2.288 200.27 1.824 199.71 1.488C199.454 1.328 199.142 1.208 198.774 1.128C198.422 1.048 198.038 0.992 197.622 0.959999C197.206 0.911999 196.782 0.887999 196.35 0.887999C195.934 0.871999 195.542 0.863999 195.174 0.863999H188.958ZM191.238 16.08V10.152H196.446C196.926 10.152 197.39 10.2 197.838 10.296C198.286 10.376 198.678 10.528 199.014 10.752C199.366 10.96 199.646 11.248 199.854 11.616C200.062 11.984 200.166 12.448 200.166 13.008C200.166 13.968 199.878 14.72 199.302 15.264C198.742 15.808 197.958 16.08 196.95 16.08H191.238ZM205.388 0.863999V18H207.668V10.68H213.236C213.796 10.68 214.244 10.768 214.58 10.944C214.916 11.104 215.188 11.328 215.396 11.616C215.604 11.888 215.756 12.216 215.852 12.6C215.948 12.968 216.028 13.36 216.092 13.776C216.172 14.192 216.22 14.616 216.236 15.048C216.252 15.48 216.268 15.888 216.284 16.272C216.3 16.64 216.332 16.976 216.38 17.28C216.444 17.584 216.556 17.824 216.716 18H219.26C219.02 17.712 218.836 17.384 218.708 17.016C218.596 16.632 218.508 16.232 218.444 15.816C218.38 15.4 218.34 14.976 218.324 14.544C218.308 14.112 218.284 13.688 218.252 13.272C218.204 12.856 218.132 12.456 218.036 12.072C217.956 11.688 217.82 11.344 217.628 11.04C217.452 10.72 217.204 10.448 216.884 10.224C216.58 10 216.18 9.84 215.684 9.744V9.696C216.724 9.408 217.476 8.872 217.94 8.088C218.42 7.304 218.66 6.392 218.66 5.352C218.66 3.96 218.196 2.864 217.268 2.064C216.356 1.264 215.084 0.863999 213.452 0.863999H205.388ZM212.42 8.76H207.668V2.784H213.332C214.404 2.784 215.18 3.056 215.66 3.6C216.14 4.144 216.38 4.848 216.38 5.712C216.38 6.336 216.268 6.848 216.044 7.248C215.836 7.632 215.548 7.944 215.18 8.184C214.828 8.408 214.412 8.56 213.932 8.64C213.452 8.72 212.948 8.76 212.42 8.76ZM221.817 0.863999V18H233.721V16.08H224.097V10.152H233.001V8.232H224.097V2.784H233.649V0.863999H221.817ZM239.441 10.92L242.345 2.928H242.393L245.249 10.92H239.441ZM241.145 0.863999L234.473 18H236.801L238.721 12.84H245.969L247.841 18H250.361L243.665 0.863999H241.145ZM254.332 16.08V2.784H258.172C259.228 2.784 260.116 2.936 260.836 3.24C261.556 3.528 262.14 3.96 262.588 4.536C263.052 5.096 263.38 5.784 263.572 6.6C263.78 7.4 263.884 8.312 263.884 9.336C263.884 10.392 263.772 11.296 263.548 12.048C263.34 12.784 263.068 13.4 262.732 13.896C262.396 14.392 262.012 14.784 261.58 15.072C261.164 15.36 260.74 15.584 260.308 15.744C259.876 15.888 259.468 15.984 259.084 16.032C258.7 16.064 258.38 16.08 258.124 16.08H254.332ZM252.052 0.863999V18H257.932C259.356 18 260.588 17.8 261.628 17.4C262.668 17 263.524 16.424 264.196 15.672C264.868 14.904 265.364 13.968 265.684 12.864C266.004 11.744 266.164 10.464 266.164 9.024C266.164 6.272 265.452 4.224 264.028 2.88C262.604 1.536 260.572 0.863999 257.932 0.863999H252.052Z" fill="#222222"/>
</svg>
