<svg width="20" height="20" viewBox="0 0 20 20" fill="none" xmlns="http://www.w3.org/2000/svg">
<path fill-rule="evenodd" clip-rule="evenodd" d="M8.1189 16.2378C3.63495 16.2378 0 12.6029 0 8.11891C0 3.63496 3.63495 0 8.1189 0C12.6028 0 16.2378 3.63496 16.2378 8.11891C16.2378 9.9951 15.6014 11.7226 14.5327 13.0975L20 18.5648L18.5648 20L13.0975 14.5327C11.7226 15.6014 9.99509 16.2378 8.1189 16.2378ZM14.2081 8.11892C14.2081 11.4819 11.4819 14.2081 8.11896 14.2081C4.756 14.2081 2.02979 11.4819 2.02979 8.11892C2.02979 4.75596 4.756 2.02974 8.11896 2.02974C11.4819 2.02974 14.2081 4.75596 14.2081 8.11892Z" fill="#222222"/>
</svg>
